<?xml version="1.0" encoding="UTF-8" standalone="no"?>
<!-- Created with Inkscape (http://www.inkscape.org/) -->

<svg
   xmlns:dc="http://purl.org/dc/elements/1.1/"
   xmlns:cc="http://creativecommons.org/ns#"
   xmlns:rdf="http://www.w3.org/1999/02/22-rdf-syntax-ns#"
   xmlns:svg="http://www.w3.org/2000/svg"
   xmlns="http://www.w3.org/2000/svg"
   xmlns:sodipodi="http://sodipodi.sourceforge.net/DTD/sodipodi-0.dtd"
   xmlns:inkscape="http://www.inkscape.org/namespaces/inkscape"
   width="1000"
   height="1000"
   id="svg2"
   version="1.1"
   inkscape:version="0.48.5 r10040"
   sodipodi:docname="dragon.svg">
  <defs
     id="defs4" />
  <sodipodi:namedview
     id="base"
     pagecolor="#ffffff"
     bordercolor="#666666"
     borderopacity="1.0"
     inkscape:pageopacity="0.0"
     inkscape:pageshadow="2"
     inkscape:zoom="0.7"
     inkscape:cx="757.31429"
     inkscape:cy="724.10497"
     inkscape:document-units="px"
     inkscape:current-layer="layer2"
     showgrid="false"
     inkscape:window-width="1536"
     inkscape:window-height="801"
     inkscape:window-x="-8"
     inkscape:window-y="-8"
     inkscape:window-maximized="1" />
  <metadata
     id="metadata7">
    <rdf:RDF>
      <cc:Work
         rdf:about="">
        <dc:format>image/svg+xml</dc:format>
        <dc:type
           rdf:resource="http://purl.org/dc/dcmitype/StillImage" />
        <dc:title></dc:title>
      </cc:Work>
    </rdf:RDF>
  </metadata>
  <g
     inkscape:label="Layer 1"
     inkscape:groupmode="layer"
     id="layer1"
     style="display:inline" />
  <g
     inkscape:groupmode="layer"
     id="layer2"
     inkscape:label="Warstwa">
    <g
       id="g3871"
       transform="translate(497.14285,42.857143)"
       style="stroke:none">
      <g
         transform="matrix(1.1523329,0,0,1.1523329,-28.626317,-54.489566)"
         id="g3833"
         style="stroke:none">
        <path
           style="fill:#ffffff;stroke:none;stroke-width:1px;stroke-linecap:butt;stroke-linejoin:miter;stroke-opacity:1"
           d="m 182.45141,256.86082 c 14.26256,-16.93346 21.80216,-18.48596 32.26542,-20.4438 2.07964,-1.91712 2.00761,-10.41316 2.00761,-10.41316 0,0 2.95202,2.67855 3.59835,7.75626 2.48538,1.01465 7.05192,0.59141 9.67721,0.0306 5.46839,-1.16808 4.12881,-5.41842 15.20024,-6.84699 14.72986,-1.65722 30.27403,9.94728 30.52302,17.18619 1.78572,7.14286 14.54722,-13.23441 14.90437,-23.9487 2.88923,-13.75826 2.72733,-71.13744 -5.07397,-77.88035 9.07022,10.13957 8.64187,14.90802 11.80738,32.94009 4.33647,-3.70885 4.48223,-4.94553 5.16959,-16.4719 3.63004,5.23587 -2.35551,48.30951 6.48985,40.89658 0.0972,12.97762 -8.65343,27.16147 0.35715,24.32006 -1.42912,13.93566 -7.62199,12.87296 0.43111,10.96311 1.60329,7.88555 -18.96419,16.14419 -1.59445,14.5562 0,0 -12.41335,13.1366 -16.16335,15.10089 -9.36429,6.25724 4.34327,11.99185 4.34327,11.99185 0,0 -19.2816,13.46138 -25.16588,19.80283 -5.88427,6.34146 3.9947,29.49063 -9.6608,14.42096 -2.62437,7.74607 -1.52666,5.46922 -2.20042,16.83385 -2.6618,-4.21812 -8.7786,6.29401 -10.91297,5.44643 0,0 1.6879,-4.53762 -1.37627,-14.33276 -3.06418,1.94788 -9.96937,15.14793 -9.96937,15.14793 0,0 -1.54065,-10.95037 -8.70449,-4.84155 -10.25344,8.9911 -25.3683,23.46528 -28.76115,39.71528 -3.39286,16.25 -0.4212,32.53212 10.75915,50.87273 11.18035,18.34061 35.10629,35.83818 79.39929,40.6948 -53.79094,-1.61673 -98.8263,-36.14161 -101.29115,-82.7965 -0.77609,-20.57636 2.03614,-30.12618 15.06128,-45.02103 13.30964,-15.22017 -9.19929,-4.60294 -17.26415,-5.41858 2.26563,-3.16654 5.076,-2.77515 7.48265,-5.9857 -11.66962,-2.46347 -26.60619,1.53199 -26.60619,1.53199 0,0 0.71782,-3.53262 1.2147,-6.16188 -3.57196,-1.48412 -24.9514,-1.54505 -31.43127,-3.58148 7.76827,-0.79449 8.92751,-0.40023 15.42015,-2.53978 -14.71378,-4.45489 -23.02422,-6.15464 -33.10161,-12.21957 -5.85111,-3.5214 -15.26785,-13.66072 -15.26785,-13.66072 0,0 16.94885,11.68044 26.78571,13.03573 21.3573,2.94253 45.32298,4.44973 68.0891,1.34934 22.76612,-3.10039 40.26153,-14.96392 48.66072,-26.07142 8.39919,-11.1075 11.81538,-17.13728 6.60714,-27.62999 -5.20823,-10.49271 -14.31536,-5.60389 -19.23078,-0.91825 -3.76099,3.58517 -9.35859,7.52101 -9.468,15.21928 -2.20414,-5.68211 -8.64417,-4.32529 -13.19942,-3.83403 -7.31843,0.78925 -15.04725,5.16673 -19.40519,10.53943 -1.20545,-3.74293 0.80898,-5.34451 -3.38171,-7.8624 -0.84148,-0.50559 -7.65643,-0.72106 -7.02402,-1.4719 z"
           id="path3034"
           inkscape:connector-curvature="0"
           sodipodi:nodetypes="ccccccccccccccccczccccccczccsccccccacszzzscacssc" />
        <path
           style="fill:#ff0000;fill-opacity:1;stroke:none"
           inkscape:transform-center-x="0.29306747"
           inkscape:transform-center-y="-0.86410677"
           d="m 213.03364,245.07128 c 0,0 -3.80065,0.64816 -6.17066,-0.0984 1.82537,-1.11468 5.47612,-3.34405 5.47612,-3.34405 0,0 -1.60086,1.55289 -1.20194,2.42707 0.24755,0.54247 1.89648,1.01535 1.89648,1.01535 z"
           id="path3812"
           inkscape:connector-curvature="0"
           sodipodi:nodetypes="cccsc" />
      </g>
      <g
         id="g3845"
         style="stroke:none" />
    </g>
  </g>
</svg>
